<svg width="1280" height="832" viewBox="0 0 1280 832" fill="none" xmlns="http://www.w3.org/2000/svg">
<path d="M16.8888 109.992L18.5366 109.574C20.6382 109.454 21.8938 110.201 22.3036 111.817C22.4184 112.269 22.0422 113.362 21.175 115.095L22.4044 119.941C23.5846 124.594 28.2648 138.435 36.445 161.464C38.7399 170.511 37.1733 175.722 31.7452 177.099C27.2218 178.247 18.9595 173.602 6.95836 163.166C4.11507 163.887 2.05164 163.345 0.768046 161.538L-0.525164 159.287C-0.566479 156.684 0.220613 155.178 1.83611 154.768C5.83185 155.336 12.5573 159.751 22.0124 168.014C26.306 170.57 29.0667 171.692 30.2945 171.381L30.8761 171.233C31.7306 170.535 31.8301 168.893 31.1744 166.308L29.6253 160.202L17.4 124.615L15.6079 118.364C14.3294 113.324 14.7563 110.533 16.8888 109.992ZM79.4534 104.026L81.7783 103.023L82.7476 102.777C84.04 102.449 85.6665 102.897 87.6272 104.119C90.4705 103.397 95.4108 105.927 102.448 111.707C109.038 118.977 113.161 125.875 114.816 132.402C117.078 141.319 115.355 148.084 109.647 152.696L103.86 155.505C94.1674 157.964 85.3443 152.464 77.3912 139.007C75.4547 135.44 74.0276 131.847 73.1096 128.228L72.8637 127.259C70.0935 116.338 72.29 108.594 79.4534 104.026ZM80.9414 113.552L78.5877 113.221C77.191 116.12 77.0663 119.831 78.2138 124.354L78.8777 126.972C81.9102 138.926 88.1536 146.593 97.6081 149.972L100.47 149.865L104.153 148.931C107.513 148.079 109.404 145.364 109.825 140.786L109.324 136.374L108.562 133.369C106.103 123.676 100.054 115.96 90.4132 110.221L86.144 110.066L85.9501 110.115C84.6577 110.443 82.9882 111.589 80.9414 113.552ZM170.71 90.265C168.349 80.9597 168.591 75.9465 171.434 75.2252C174.277 74.504 177.035 79.4099 179.707 89.9429L182.061 104.511C185.143 116.66 189.135 125.62 194.038 131.392L194.136 131.779C194.464 133.072 193.797 134.101 192.134 134.866L191.746 134.965C189.323 135.442 186.067 131.419 181.979 122.896L181.591 122.994C180.788 133.927 177.77 140.058 172.535 141.386C167.301 142.713 162.867 139.333 159.234 131.245L157.492 125.6L157.025 123.758L152.873 101.289L151.791 97.0243C151.463 95.7319 151.952 94.5418 153.258 93.4539L154.13 93.2326C155.94 92.7737 157.148 93.7396 157.754 96.1306L157.902 96.7122L162.916 122.986L163.826 126.572C165.137 131.742 167.234 134.855 170.115 135.913L171.86 135.47C174.648 132.631 176.093 125.042 176.196 112.705L175.978 105.745L170.71 90.265ZM250.577 56.9032C251.74 56.6081 252.802 57.4048 253.762 59.2933C254.057 60.4565 252.431 62.5883 248.885 65.6888C244.959 71.3616 243.129 79.8729 243.395 91.2227L243.837 92.9674C248.754 88.7627 252.367 86.058 254.675 84.8536C255.45 84.6569 256.559 85.0977 258.002 86.176L258.469 88.0177C258.65 88.7285 256.167 90.8714 251.021 94.4464C247.347 97.8546 245.55 99.7202 245.632 100.043L245.853 100.916C246.771 104.534 249.893 107.078 255.217 108.548L258.661 108.293C260.793 107.752 263.623 105.624 267.152 101.909L268.315 101.614C269.836 101.916 270.752 102.681 271.063 103.909L271.211 104.491C268.27 109.707 264.376 112.93 259.53 114.16C252.615 115.913 246.395 112.539 240.868 104.037L235.081 106.846C231.994 107.148 230.262 106.556 229.885 105.07C229.508 103.583 230.109 102.296 231.69 101.207L234.018 101.029C237.132 99.2076 238.632 98.0706 238.517 97.6182C235.731 86.6328 237.317 75.3979 243.276 63.9134C246.657 59.6169 249.09 57.2802 250.577 56.9032ZM316.457 41.0168L316.845 40.9184C325.024 40.3566 329.893 43.1452 331.45 49.2841L331.893 51.0288C333.614 57.8139 330.997 65.665 324.043 74.582L324.141 74.9697C341.344 83.949 352.627 87.7583 357.99 86.3978C359.14 86.8627 359.846 87.6121 360.108 88.646C360.485 90.1323 359.624 91.348 357.526 92.293C352.162 93.6535 340.507 89.7323 322.56 80.5293L317.826 79.3572L317.535 79.4309C321.181 86.2094 323.503 91.5696 324.503 95.5114C324.929 97.1915 324.199 98.6492 322.311 99.8846C319.339 100.639 315.621 93.8442 311.157 79.5014C307.384 73.3055 304.99 68.2043 303.974 64.1979L303.752 63.3255C302.261 57.4451 302.807 54.177 305.392 53.5213L307.48 54.0235L308.061 53.8759C309.458 46.3687 312.257 42.0823 316.457 41.0168ZM315.171 68.8887L315.79 72.5489C321.799 71.0245 325.384 64.8193 326.543 53.9335L325.633 50.3471C324.912 47.5038 322.539 46.2831 318.514 46.6851L317.932 46.8326C313.861 47.8653 312.941 55.2173 315.171 68.8887ZM236.461 209.045L238.109 208.627C240.211 208.506 241.466 209.254 241.876 210.869C241.991 211.322 241.615 212.414 240.747 214.147L241.977 218.994C243.157 223.646 247.837 237.487 256.017 260.516C258.312 269.563 256.746 274.775 251.318 276.152C246.794 277.299 238.532 272.655 226.531 262.219C223.687 262.94 221.624 262.397 220.34 260.591L219.047 258.34C219.006 255.737 219.793 254.23 221.408 253.82C225.404 254.389 232.13 258.804 241.585 267.066C245.878 269.622 248.639 270.744 249.867 270.433L250.448 270.285C251.303 269.587 251.402 267.946 250.747 265.361L249.198 259.254L236.972 223.668L235.18 217.417C233.902 212.376 234.329 209.586 236.461 209.045ZM299.026 203.078L301.351 202.076L302.32 201.83C303.612 201.502 305.239 201.949 307.2 203.171C310.043 202.45 314.983 204.979 322.021 210.76C328.61 218.029 332.733 224.928 334.389 231.454C336.651 240.372 334.928 247.136 329.22 251.748L323.433 254.557C313.74 257.016 304.917 251.517 296.964 238.059C295.027 234.492 293.6 230.9 292.682 227.281L292.436 226.312C289.666 215.391 291.862 207.646 299.026 203.078ZM300.514 212.605L298.16 212.273C296.763 215.172 296.639 218.884 297.786 223.407L298.45 226.024C301.483 237.979 307.726 245.646 317.18 249.025L320.042 248.918L323.725 247.983C327.086 247.131 328.976 244.416 329.397 239.839L328.897 235.426L328.134 232.422C325.676 222.729 319.626 215.013 309.986 209.273L305.716 209.118L305.522 209.168C304.23 209.495 302.561 210.641 300.514 212.605ZM390.282 189.317C387.922 180.012 388.163 174.999 391.006 174.278C393.85 173.556 396.607 178.462 399.279 188.995L401.633 203.564C404.715 215.712 408.708 224.672 413.611 230.444L413.709 230.832C414.037 232.124 413.369 233.153 411.706 233.919L411.319 234.017C408.895 234.495 405.639 230.472 401.551 221.948L401.164 222.047C400.361 232.98 397.342 239.11 392.108 240.438C386.873 241.766 382.44 238.386 378.806 230.297L377.064 224.652L376.597 222.811L372.445 200.342L371.363 196.077C371.035 194.784 371.525 193.594 372.83 192.506L373.703 192.285C375.512 191.826 376.72 192.792 377.327 195.183L377.474 195.765L382.488 222.038L383.398 225.625C384.709 230.794 386.806 233.908 389.688 234.965L391.432 234.522C394.22 231.683 395.665 224.095 395.768 211.757L395.55 204.797L390.282 189.317ZM470.149 155.956C471.312 155.661 472.374 156.457 473.334 158.346C473.63 159.509 472.004 161.641 468.457 164.741C464.532 170.414 462.701 178.925 462.967 190.275L463.41 192.02C468.327 187.815 471.939 185.11 474.247 183.906C475.023 183.709 476.132 184.15 477.575 185.228L478.042 187.07C478.222 187.781 475.739 189.924 470.594 193.499C466.919 196.907 465.123 198.773 465.204 199.096L465.426 199.968C466.344 203.587 469.465 206.131 474.79 207.6L478.233 207.346C480.365 206.805 483.196 204.677 486.724 200.962L487.887 200.667C489.408 200.969 490.324 201.734 490.636 202.961L490.783 203.543C487.842 208.76 483.949 211.983 479.102 213.212C472.188 214.966 465.967 211.592 460.44 203.09L454.653 205.899C451.566 206.201 449.834 205.608 449.457 204.122C449.08 202.636 449.682 201.348 451.263 200.26L453.59 200.082C456.705 198.26 458.205 197.123 458.09 196.671C455.303 185.685 456.889 174.45 462.849 162.966C466.229 158.669 468.663 156.333 470.149 155.956ZM536.029 140.069L536.417 139.971C544.597 139.409 549.465 142.198 551.022 148.337L551.465 150.081C553.186 156.866 550.57 164.717 543.615 173.634L543.714 174.022C560.916 183.001 572.199 186.811 577.563 185.45C578.712 185.915 579.418 186.665 579.681 187.699C580.058 189.185 579.197 190.4 577.098 191.345C571.735 192.706 560.079 188.785 542.132 179.582L537.399 178.41L537.108 178.483C540.753 185.262 543.076 190.622 544.076 194.564C544.502 196.244 543.771 197.702 541.884 198.937C538.911 199.691 535.193 192.897 530.729 178.554C526.957 172.358 524.562 167.257 523.546 163.25L523.325 162.378C521.833 156.498 522.38 153.229 524.964 152.574L527.052 153.076L527.633 152.928C529.03 145.421 531.829 141.135 536.029 140.069ZM534.743 167.941L535.362 171.601C541.372 170.077 544.956 163.872 546.115 152.986L545.205 149.4C544.484 146.556 542.111 145.336 538.086 145.738L537.505 145.885C533.434 146.918 532.513 154.27 534.743 167.941Z" fill="#E2976F" fill-opacity="0.6"/>
<path d="M-46.1112 405.992L-44.4634 405.574C-42.3618 405.454 -41.1062 406.201 -40.6964 407.817C-40.5816 408.269 -40.9578 409.362 -41.825 411.095L-40.5956 415.941C-39.4154 420.594 -34.7352 434.435 -26.555 457.464C-24.2601 466.511 -25.8267 471.722 -31.2548 473.099C-35.7782 474.247 -44.0405 469.602 -56.0416 459.166C-58.8849 459.887 -60.9484 459.345 -62.232 457.538L-63.5252 455.287C-63.5665 452.684 -62.7794 451.178 -61.1639 450.768C-57.1681 451.336 -50.4427 455.751 -40.9876 464.014C-36.694 466.57 -33.9333 467.692 -32.7055 467.381L-32.1239 467.233C-31.2694 466.535 -31.1699 464.893 -31.8256 462.308L-33.3747 456.202L-45.6 420.615L-47.3921 414.364C-48.6706 409.324 -48.2437 406.533 -46.1112 405.992ZM16.4534 400.026L18.7783 399.023L19.7476 398.777C21.04 398.449 22.6665 398.897 24.6272 400.119C27.4705 399.397 32.4108 401.927 39.4481 407.707C46.0379 414.977 50.1605 421.875 51.8161 428.402C54.0782 437.319 52.3553 444.084 46.6473 448.696L40.8604 451.505C31.1674 453.964 22.3443 448.464 14.3912 435.007C12.4547 431.44 11.0276 427.847 10.1096 424.228L9.86372 423.259C7.09348 412.338 9.29003 404.594 16.4534 400.026ZM17.9414 409.552L15.5877 409.221C14.191 412.12 14.0663 415.831 15.2138 420.354L15.8777 422.972C18.9102 434.926 25.1536 442.593 34.6081 445.972L37.4696 445.865L41.153 444.931C44.5132 444.079 46.4037 441.364 46.8245 436.786L46.3242 432.374L45.562 429.369C43.1032 419.676 37.0536 411.96 27.4132 406.221L23.144 406.066L22.9501 406.115C21.6577 406.443 19.9882 407.589 17.9414 409.552ZM107.71 386.265C105.349 376.96 105.591 371.946 108.434 371.225C111.277 370.504 114.035 375.41 116.707 385.943L119.061 400.511C122.143 412.66 126.135 421.62 131.038 427.392L131.136 427.779C131.464 429.072 130.797 430.101 129.134 430.866L128.746 430.965C126.323 431.442 123.067 427.419 118.979 418.896L118.591 418.994C117.788 429.927 114.77 436.058 109.535 437.386C104.301 438.713 99.8672 435.333 96.2336 427.245L94.4921 421.6L94.0249 419.758L89.8728 397.289L88.7909 393.024C88.4631 391.732 88.9521 390.542 90.2581 389.454L91.1305 389.233C92.9398 388.774 94.1477 389.74 94.7542 392.131L94.9018 392.712L99.9159 418.986L100.826 422.572C102.137 427.742 104.234 430.855 107.115 431.913L108.86 431.47C111.648 428.631 113.093 421.042 113.196 408.705L112.978 401.745L107.71 386.265ZM187.577 352.903C188.74 352.608 189.802 353.405 190.762 355.293C191.057 356.456 189.431 358.588 185.885 361.689C181.959 367.362 180.129 375.873 180.395 387.223L180.837 388.967C185.754 384.763 189.367 382.058 191.675 380.854C192.45 380.657 193.559 381.098 195.002 382.176L195.469 384.018C195.65 384.729 193.167 386.871 188.021 390.446C184.347 393.855 182.55 395.72 182.632 396.043L182.853 396.916C183.771 400.534 186.893 403.078 192.217 404.548L195.661 404.293C197.793 403.752 200.623 401.624 204.152 397.909L205.315 397.614C206.836 397.916 207.752 398.681 208.063 399.909L208.211 400.491C205.27 405.707 201.376 408.93 196.53 410.16C189.615 411.913 183.395 408.539 177.868 400.037L172.081 402.846C168.994 403.148 167.262 402.556 166.885 401.07C166.508 399.583 167.109 398.296 168.69 397.207L171.018 397.029C174.132 395.208 175.632 394.071 175.517 393.618C172.731 382.633 174.317 371.398 180.276 359.913C183.657 355.617 186.09 353.28 187.577 352.903ZM253.457 337.017L253.845 336.918C262.024 336.357 266.893 339.145 268.45 345.284L268.893 347.029C270.614 353.814 267.997 361.665 261.043 370.582L261.141 370.97C278.344 379.949 289.627 383.758 294.99 382.398C296.14 382.863 296.846 383.612 297.108 384.646C297.485 386.132 296.624 387.348 294.526 388.293C289.162 389.654 277.507 385.732 259.56 376.529L254.826 375.357L254.535 375.431C258.181 382.209 260.503 387.57 261.503 391.511C261.929 393.191 261.199 394.649 259.311 395.885C256.339 396.639 252.621 389.844 248.157 375.501C244.384 369.306 241.99 364.204 240.974 360.198L240.752 359.326C239.261 353.445 239.807 350.177 242.392 349.521L244.48 350.023L245.061 349.876C246.458 342.369 249.257 338.082 253.457 337.017ZM252.171 364.889L252.79 368.549C258.799 367.024 262.384 360.819 263.543 349.933L262.633 346.347C261.912 343.504 259.539 342.283 255.514 342.685L254.932 342.833C250.861 343.865 249.941 351.217 252.171 364.889ZM173.461 505.045L175.109 504.627C177.211 504.506 178.466 505.254 178.876 506.869C178.991 507.322 178.615 508.414 177.747 510.147L178.977 514.994C180.157 519.646 184.837 533.487 193.017 556.516C195.312 565.563 193.746 570.775 188.318 572.152C183.794 573.299 175.532 568.655 163.531 558.219C160.687 558.94 158.624 558.397 157.34 556.591L156.047 554.34C156.006 551.737 156.793 550.23 158.408 549.82C162.404 550.389 169.13 554.804 178.585 563.066C182.878 565.622 185.639 566.744 186.867 566.433L187.448 566.285C188.303 565.587 188.402 563.946 187.747 561.361L186.198 555.254L173.972 519.668L172.18 513.417C170.902 508.376 171.329 505.586 173.461 505.045ZM236.026 499.078L238.351 498.076L239.32 497.83C240.612 497.502 242.239 497.949 244.2 499.171C247.043 498.45 251.983 500.979 259.021 506.76C265.61 514.029 269.733 520.928 271.389 527.454C273.651 536.372 271.928 543.136 266.22 547.748L260.433 550.557C250.74 553.016 241.917 547.517 233.964 534.059C232.027 530.492 230.6 526.9 229.682 523.281L229.436 522.312C226.666 511.391 228.862 503.646 236.026 499.078ZM237.514 508.605L235.16 508.273C233.763 511.172 233.639 514.884 234.786 519.407L235.45 522.024C238.483 533.979 244.726 541.646 254.18 545.025L257.042 544.918L260.725 543.983C264.086 543.131 265.976 540.416 266.397 535.839L265.897 531.426L265.134 528.422C262.676 518.729 256.626 511.013 246.986 505.273L242.716 505.118L242.522 505.168C241.23 505.495 239.561 506.641 237.514 508.605ZM327.282 485.317C324.922 476.012 325.163 470.999 328.006 470.278C330.85 469.556 333.607 474.462 336.279 484.995L338.633 499.564C341.715 511.712 345.708 520.672 350.611 526.444L350.709 526.832C351.037 528.124 350.369 529.153 348.706 529.919L348.319 530.017C345.895 530.495 342.639 526.472 338.551 517.948L338.164 518.047C337.361 528.98 334.342 535.11 329.108 536.438C323.873 537.766 319.44 534.386 315.806 526.297L314.064 520.652L313.597 518.811L309.445 496.342L308.363 492.077C308.035 490.784 308.525 489.594 309.83 488.506L310.703 488.285C312.512 487.826 313.72 488.792 314.327 491.183L314.474 491.765L319.488 518.038L320.398 521.625C321.709 526.794 323.806 529.908 326.688 530.965L328.432 530.522C331.22 527.683 332.665 520.095 332.768 507.757L332.55 500.797L327.282 485.317ZM407.149 451.956C408.312 451.661 409.374 452.457 410.334 454.346C410.63 455.509 409.004 457.641 405.457 460.741C401.532 466.414 399.701 474.925 399.967 486.275L400.41 488.02C405.327 483.815 408.939 481.11 411.247 479.906C412.023 479.709 413.132 480.15 414.575 481.228L415.042 483.07C415.222 483.781 412.739 485.924 407.594 489.499C403.919 492.907 402.123 494.773 402.204 495.096L402.426 495.968C403.344 499.587 406.465 502.131 411.79 503.6L415.233 503.346C417.365 502.805 420.196 500.677 423.724 496.962L424.887 496.667C426.408 496.969 427.324 497.734 427.636 498.961L427.783 499.543C424.842 504.76 420.949 507.983 416.102 509.212C409.188 510.966 402.967 507.592 397.44 499.09L391.653 501.899C388.566 502.201 386.834 501.608 386.457 500.122C386.08 498.636 386.682 497.348 388.263 496.26L390.59 496.082C393.705 494.26 395.205 493.123 395.09 492.671C392.303 481.685 393.889 470.45 399.849 458.966C403.229 454.669 405.663 452.333 407.149 451.956ZM473.029 436.069L473.417 435.971C481.597 435.409 486.465 438.198 488.022 444.337L488.465 446.081C490.186 452.866 487.57 460.717 480.615 469.634L480.714 470.022C497.916 479.001 509.199 482.811 514.563 481.45C515.712 481.915 516.418 482.665 516.681 483.699C517.058 485.185 516.197 486.4 514.098 487.345C508.735 488.706 497.079 484.785 479.132 475.582L474.399 474.41L474.108 474.483C477.753 481.262 480.076 486.622 481.076 490.564C481.502 492.244 480.771 493.702 478.884 494.937C475.911 495.691 472.193 488.897 467.729 474.554C463.957 468.358 461.562 463.257 460.546 459.25L460.325 458.378C458.833 452.498 459.38 449.229 461.964 448.574L464.052 449.076L464.633 448.928C466.03 441.421 468.829 437.135 473.029 436.069ZM471.743 463.941L472.362 467.601C478.372 466.077 481.956 459.872 483.115 448.986L482.205 445.4C481.484 442.556 479.111 441.336 475.086 441.738L474.505 441.885C470.434 442.918 469.513 450.27 471.743 463.941Z" fill="#449F63" fill-opacity="0.6"/>
<path d="M0.88877 712.992L2.53658 712.574C4.63815 712.454 5.89384 713.201 6.30364 714.817C6.41838 715.269 6.04218 716.362 5.17502 718.095L6.40442 722.941C7.58465 727.594 12.2648 741.435 20.445 764.464C22.7399 773.511 21.1733 778.722 15.7452 780.099C11.2218 781.247 2.95951 776.602 -9.04164 766.166C-11.8849 766.887 -13.9484 766.345 -15.232 764.538L-16.5252 762.287C-16.5665 759.684 -15.7794 758.178 -14.1639 757.768C-10.1681 758.336 -3.44273 762.751 6.01237 771.014C10.306 773.57 13.0667 774.692 14.2945 774.381L14.8761 774.233C15.7306 773.535 15.8301 771.893 15.1744 769.308L13.6253 763.202L1.40002 727.615L-0.392057 721.364C-1.67063 716.324 -1.24369 713.533 0.88877 712.992ZM63.4534 707.026L65.7783 706.023L66.7476 705.777C68.04 705.449 69.6665 705.897 71.6272 707.119C74.4705 706.397 79.4108 708.927 86.4481 714.707C93.0379 721.977 97.1605 728.875 98.8161 735.402C101.078 744.319 99.3553 751.084 93.6473 755.696L87.8604 758.505C78.1674 760.964 69.3443 755.464 61.3912 742.007C59.4547 738.44 58.0276 734.847 57.1096 731.228L56.8637 730.259C54.0935 719.338 56.29 711.594 63.4534 707.026ZM64.9414 716.552L62.5877 716.221C61.191 719.12 61.0663 722.831 62.2138 727.354L62.8777 729.972C65.9102 741.926 72.1536 749.593 81.6081 752.972L84.4696 752.865L88.153 751.931C91.5132 751.079 93.4037 748.364 93.8245 743.786L93.3242 739.374L92.562 736.369C90.1032 726.676 84.0536 718.96 74.4132 713.221L70.144 713.066L69.9501 713.115C68.6577 713.443 66.9882 714.589 64.9414 716.552ZM154.71 693.265C152.349 683.96 152.591 678.946 155.434 678.225C158.277 677.504 161.035 682.41 163.707 692.943L166.061 707.511C169.143 719.66 173.135 728.62 178.038 734.392L178.136 734.779C178.464 736.072 177.797 737.101 176.134 737.866L175.746 737.965C173.323 738.442 170.067 734.419 165.979 725.896L165.591 725.994C164.788 736.927 161.77 743.058 156.535 744.386C151.301 745.713 146.867 742.333 143.234 734.245L141.492 728.6L141.025 726.758L136.873 704.289L135.791 700.024C135.463 698.732 135.952 697.542 137.258 696.454L138.13 696.233C139.94 695.774 141.148 696.74 141.754 699.131L141.902 699.712L146.916 725.986L147.826 729.572C149.137 734.742 151.234 737.855 154.115 738.913L155.86 738.47C158.648 735.631 160.093 728.042 160.196 715.705L159.978 708.745L154.71 693.265ZM234.577 659.903C235.74 659.608 236.802 660.405 237.762 662.293C238.057 663.456 236.431 665.588 232.885 668.689C228.959 674.362 227.129 682.873 227.395 694.223L227.837 695.967C232.754 691.763 236.367 689.058 238.675 687.854C239.45 687.657 240.559 688.098 242.002 689.176L242.469 691.018C242.65 691.729 240.167 693.871 235.021 697.446C231.347 700.855 229.55 702.72 229.632 703.043L229.853 703.916C230.771 707.534 233.893 710.078 239.217 711.548L242.661 711.293C244.793 710.752 247.623 708.624 251.152 704.909L252.315 704.614C253.836 704.916 254.752 705.681 255.063 706.909L255.211 707.491C252.27 712.707 248.376 715.93 243.53 717.16C236.615 718.913 230.395 715.539 224.868 707.037L219.081 709.846C215.994 710.148 214.262 709.556 213.885 708.07C213.508 706.583 214.109 705.296 215.69 704.207L218.018 704.029C221.132 702.208 222.632 701.071 222.517 700.618C219.731 689.633 221.317 678.398 227.276 666.913C230.657 662.617 233.09 660.28 234.577 659.903ZM300.457 644.017L300.845 643.918C309.024 643.357 313.893 646.145 315.45 652.284L315.893 654.029C317.614 660.814 314.997 668.665 308.043 677.582L308.141 677.97C325.344 686.949 336.627 690.758 341.99 689.398C343.14 689.863 343.846 690.612 344.108 691.646C344.485 693.132 343.624 694.348 341.526 695.293C336.162 696.654 324.507 692.732 306.56 683.529L301.826 682.357L301.535 682.431C305.181 689.209 307.503 694.57 308.503 698.511C308.929 700.191 308.199 701.649 306.311 702.885C303.339 703.639 299.621 696.844 295.157 682.501C291.384 676.306 288.99 671.204 287.974 667.198L287.752 666.326C286.261 660.445 286.807 657.177 289.392 656.521L291.48 657.023L292.061 656.876C293.458 649.369 296.257 645.082 300.457 644.017ZM299.171 671.889L299.79 675.549C305.799 674.024 309.384 667.819 310.543 656.933L309.633 653.347C308.912 650.504 306.539 649.283 302.514 649.685L301.932 649.833C297.861 650.865 296.941 658.217 299.171 671.889ZM220.461 812.045L222.109 811.627C224.211 811.506 225.466 812.254 225.876 813.869C225.991 814.322 225.615 815.414 224.747 817.147L225.977 821.994C227.157 826.646 231.837 840.487 240.017 863.516C242.312 872.563 240.746 877.775 235.318 879.152C230.794 880.299 222.532 875.655 210.531 865.219C207.687 865.94 205.624 865.397 204.34 863.591L203.047 861.34C203.006 858.737 203.793 857.23 205.408 856.82C209.404 857.389 216.13 861.804 225.585 870.066C229.878 872.622 232.639 873.744 233.867 873.433L234.448 873.285C235.303 872.587 235.402 870.946 234.747 868.361L233.198 862.254L220.972 826.668L219.18 820.417C217.902 815.376 218.329 812.586 220.461 812.045ZM283.026 806.078L285.351 805.076L286.32 804.83C287.612 804.502 289.239 804.949 291.2 806.171C294.043 805.45 298.983 807.979 306.021 813.76C312.61 821.029 316.733 827.928 318.389 834.454C320.651 843.372 318.928 850.136 313.22 854.748L307.433 857.557C297.74 860.016 288.917 854.517 280.964 841.059C279.027 837.492 277.6 833.9 276.682 830.281L276.436 829.312C273.666 818.391 275.862 810.646 283.026 806.078ZM284.514 815.605L282.16 815.273C280.763 818.172 280.639 821.884 281.786 826.407L282.45 829.024C285.483 840.979 291.726 848.646 301.18 852.025L304.042 851.918L307.725 850.983C311.086 850.131 312.976 847.416 313.397 842.839L312.897 838.426L312.134 835.422C309.676 825.729 303.626 818.013 293.986 812.273L289.716 812.118L289.522 812.168C288.23 812.495 286.561 813.641 284.514 815.605ZM374.282 792.317C371.922 783.012 372.163 777.999 375.006 777.278C377.85 776.556 380.607 781.462 383.279 791.995L385.633 806.564C388.715 818.712 392.708 827.672 397.611 833.444L397.709 833.832C398.037 835.124 397.369 836.153 395.706 836.919L395.319 837.017C392.895 837.495 389.639 833.472 385.551 824.948L385.164 825.047C384.361 835.98 381.342 842.11 376.108 843.438C370.873 844.766 366.44 841.386 362.806 833.297L361.064 827.652L360.597 825.811L356.445 803.342L355.363 799.077C355.035 797.784 355.525 796.594 356.83 795.506L357.703 795.285C359.512 794.826 360.72 795.792 361.327 798.183L361.474 798.765L366.488 825.038L367.398 828.625C368.709 833.794 370.806 836.908 373.688 837.965L375.432 837.522C378.22 834.683 379.665 827.095 379.768 814.757L379.55 807.797L374.282 792.317ZM454.149 758.956C455.312 758.661 456.374 759.457 457.334 761.346C457.63 762.509 456.004 764.641 452.457 767.741C448.532 773.414 446.701 781.925 446.967 793.275L447.41 795.02C452.327 790.815 455.939 788.11 458.247 786.906C459.023 786.709 460.132 787.15 461.575 788.228L462.042 790.07C462.222 790.781 459.739 792.924 454.594 796.499C450.919 799.907 449.123 801.773 449.204 802.096L449.426 802.968C450.344 806.587 453.465 809.131 458.79 810.6L462.233 810.346C464.365 809.805 467.196 807.677 470.724 803.962L471.887 803.667C473.408 803.969 474.324 804.734 474.636 805.961L474.783 806.543C471.842 811.76 467.949 814.983 463.102 816.212C456.188 817.966 449.967 814.592 444.44 806.09L438.653 808.899C435.566 809.201 433.834 808.608 433.457 807.122C433.08 805.636 433.682 804.348 435.263 803.26L437.59 803.082C440.705 801.26 442.205 800.123 442.09 799.671C439.303 788.685 440.889 777.45 446.849 765.966C450.229 761.669 452.663 759.333 454.149 758.956ZM520.029 743.069L520.417 742.971C528.597 742.409 533.465 745.198 535.022 751.337L535.465 753.081C537.186 759.866 534.57 767.717 527.615 776.634L527.714 777.022C544.916 786.001 556.199 789.811 561.563 788.45C562.712 788.915 563.418 789.665 563.681 790.699C564.058 792.185 563.197 793.4 561.098 794.345C555.735 795.706 544.079 791.785 526.132 782.582L521.399 781.41L521.108 781.483C524.753 788.262 527.076 793.622 528.076 797.564C528.502 799.244 527.771 800.702 525.884 801.937C522.911 802.691 519.193 795.897 514.729 781.554C510.957 775.358 508.562 770.257 507.546 766.25L507.325 765.378C505.833 759.498 506.38 756.229 508.964 755.574L511.052 756.076L511.633 755.928C513.03 748.421 515.829 744.135 520.029 743.069ZM518.743 770.941L519.362 774.601C525.372 773.077 528.956 766.872 530.115 755.986L529.205 752.4C528.484 749.556 526.111 748.336 522.086 748.738L521.505 748.885C517.434 749.918 516.513 757.27 518.743 770.941Z" fill="#713A85" fill-opacity="0.6"/>
<path d="M633.889 664.992L635.537 664.574C637.638 664.454 638.894 665.201 639.304 666.817C639.418 667.269 639.042 668.362 638.175 670.095L639.404 674.941C640.585 679.594 645.265 693.435 653.445 716.464C655.74 725.511 654.173 730.722 648.745 732.099C644.222 733.247 635.96 728.602 623.958 718.166C621.115 718.887 619.052 718.345 617.768 716.538L616.475 714.287C616.434 711.684 617.221 710.178 618.836 709.768C622.832 710.336 629.557 714.751 639.012 723.014C643.306 725.57 646.067 726.692 647.294 726.381L647.876 726.233C648.731 725.535 648.83 723.893 648.174 721.308L646.625 715.202L634.4 679.615L632.608 673.364C631.329 668.324 631.756 665.533 633.889 664.992ZM696.453 659.026L698.778 658.023L699.748 657.777C701.04 657.449 702.667 657.897 704.627 659.119C707.47 658.397 712.411 660.927 719.448 666.707C726.038 673.977 730.161 680.875 731.816 687.402C734.078 696.319 732.355 703.084 726.647 707.696L720.86 710.505C711.167 712.964 702.344 707.464 694.391 694.007C692.455 690.44 691.028 686.847 690.11 683.228L689.864 682.259C687.093 671.338 689.29 663.594 696.453 659.026ZM697.941 668.552L695.588 668.221C694.191 671.12 694.066 674.831 695.214 679.354L695.878 681.972C698.91 693.926 705.154 701.593 714.608 704.972L717.47 704.865L721.153 703.931C724.513 703.079 726.404 700.364 726.825 695.786L726.324 691.374L725.562 688.369C723.103 678.676 717.054 670.96 707.413 665.221L703.144 665.066L702.95 665.115C701.658 665.443 699.988 666.589 697.941 668.552ZM787.71 645.265C785.349 635.96 785.591 630.946 788.434 630.225C791.277 629.504 794.035 634.41 796.707 644.943L799.061 659.511C802.143 671.66 806.135 680.62 811.038 686.392L811.136 686.779C811.464 688.072 810.797 689.101 809.134 689.866L808.746 689.965C806.323 690.442 803.067 686.419 798.979 677.896L798.591 677.994C797.788 688.927 794.77 695.058 789.535 696.386C784.301 697.713 779.867 694.333 776.234 686.245L774.492 680.6L774.025 678.758L769.873 656.289L768.791 652.024C768.463 650.732 768.952 649.542 770.258 648.454L771.13 648.233C772.94 647.774 774.148 648.74 774.754 651.131L774.902 651.712L779.916 677.986L780.826 681.572C782.137 686.742 784.234 689.855 787.115 690.913L788.86 690.47C791.648 687.631 793.093 680.042 793.196 667.705L792.978 660.745L787.71 645.265ZM867.577 611.903C868.74 611.608 869.802 612.405 870.762 614.293C871.057 615.456 869.431 617.588 865.885 620.689C861.959 626.362 860.129 634.873 860.395 646.223L860.837 647.967C865.754 643.763 869.367 641.058 871.675 639.854C872.45 639.657 873.559 640.098 875.002 641.176L875.469 643.018C875.65 643.729 873.167 645.871 868.021 649.446C864.347 652.855 862.55 654.72 862.632 655.043L862.853 655.916C863.771 659.534 866.893 662.078 872.217 663.548L875.661 663.293C877.793 662.752 880.623 660.624 884.152 656.909L885.315 656.614C886.836 656.916 887.752 657.681 888.063 658.909L888.211 659.491C885.27 664.707 881.376 667.93 876.53 669.16C869.615 670.913 863.395 667.539 857.868 659.037L852.081 661.846C848.994 662.148 847.262 661.556 846.885 660.07C846.508 658.583 847.109 657.296 848.69 656.207L851.018 656.029C854.132 654.208 855.632 653.071 855.517 652.618C852.731 641.633 854.317 630.398 860.276 618.913C863.657 614.617 866.09 612.28 867.577 611.903ZM933.457 596.017L933.845 595.918C942.024 595.357 946.893 598.145 948.45 604.284L948.893 606.029C950.614 612.814 947.997 620.665 941.043 629.582L941.141 629.97C958.344 638.949 969.627 642.758 974.99 641.398C976.14 641.863 976.846 642.612 977.108 643.646C977.485 645.132 976.624 646.348 974.526 647.293C969.162 648.654 957.507 644.732 939.56 635.529L934.826 634.357L934.535 634.431C938.181 641.209 940.503 646.57 941.503 650.511C941.929 652.191 941.199 653.649 939.311 654.885C936.339 655.639 932.621 648.844 928.157 634.501C924.384 628.306 921.99 623.204 920.974 619.198L920.752 618.326C919.261 612.445 919.807 609.177 922.392 608.521L924.48 609.023L925.061 608.876C926.458 601.369 929.257 597.082 933.457 596.017ZM932.171 623.889L932.79 627.549C938.799 626.024 942.384 619.819 943.543 608.933L942.633 605.347C941.912 602.504 939.539 601.283 935.514 601.685L934.932 601.833C930.861 602.865 929.941 610.217 932.171 623.889ZM853.461 764.045L855.109 763.627C857.211 763.506 858.466 764.254 858.876 765.869C858.991 766.322 858.615 767.414 857.747 769.147L858.977 773.994C860.157 778.646 864.837 792.487 873.017 815.516C875.312 824.563 873.746 829.775 868.318 831.152C863.794 832.299 855.532 827.655 843.531 817.219C840.687 817.94 838.624 817.397 837.34 815.591L836.047 813.34C836.006 810.737 836.793 809.23 838.408 808.82C842.404 809.389 849.13 813.804 858.585 822.066C862.878 824.622 865.639 825.744 866.867 825.433L867.448 825.285C868.303 824.587 868.402 822.946 867.747 820.361L866.198 814.254L853.972 778.668L852.18 772.417C850.902 767.376 851.329 764.586 853.461 764.045ZM916.026 758.078L918.351 757.076L919.32 756.83C920.612 756.502 922.239 756.949 924.2 758.171C927.043 757.45 931.983 759.979 939.021 765.76C945.61 773.029 949.733 779.928 951.389 786.454C953.651 795.372 951.928 802.136 946.22 806.748L940.433 809.557C930.74 812.016 921.917 806.517 913.964 793.059C912.027 789.492 910.6 785.9 909.682 782.281L909.436 781.312C906.666 770.391 908.862 762.646 916.026 758.078ZM917.514 767.605L915.16 767.273C913.763 770.172 913.639 773.884 914.786 778.407L915.45 781.024C918.483 792.979 924.726 800.646 934.18 804.025L937.042 803.918L940.725 802.983C944.086 802.131 945.976 799.416 946.397 794.839L945.897 790.426L945.134 787.422C942.676 777.729 936.626 770.013 926.986 764.273L922.716 764.118L922.522 764.168C921.23 764.495 919.561 765.641 917.514 767.605ZM1007.28 744.317C1004.92 735.012 1005.16 729.999 1008.01 729.278C1010.85 728.556 1013.61 733.462 1016.28 743.995L1018.63 758.564C1021.72 770.712 1025.71 779.672 1030.61 785.444L1030.71 785.832C1031.04 787.124 1030.37 788.153 1028.71 788.919L1028.32 789.017C1025.9 789.495 1022.64 785.472 1018.55 776.948L1018.16 777.047C1017.36 787.98 1014.34 794.11 1009.11 795.438C1003.87 796.766 999.44 793.386 995.806 785.297L994.064 779.652L993.597 777.811L989.445 755.342L988.363 751.077C988.035 749.784 988.525 748.594 989.83 747.506L990.703 747.285C992.512 746.826 993.72 747.792 994.327 750.183L994.474 750.765L999.488 777.038L1000.4 780.625C1001.71 785.794 1003.81 788.908 1006.69 789.965L1008.43 789.522C1011.22 786.683 1012.67 779.095 1012.77 766.757L1012.55 759.797L1007.28 744.317ZM1087.15 710.956C1088.31 710.661 1089.37 711.457 1090.33 713.346C1090.63 714.509 1089 716.641 1085.46 719.741C1081.53 725.414 1079.7 733.925 1079.97 745.275L1080.41 747.02C1085.33 742.815 1088.94 740.11 1091.25 738.906C1092.02 738.709 1093.13 739.15 1094.57 740.228L1095.04 742.07C1095.22 742.781 1092.74 744.924 1087.59 748.499C1083.92 751.907 1082.12 753.773 1082.2 754.096L1082.43 754.968C1083.34 758.587 1086.47 761.131 1091.79 762.6L1095.23 762.346C1097.37 761.805 1100.2 759.677 1103.72 755.962L1104.89 755.667C1106.41 755.969 1107.32 756.734 1107.64 757.961L1107.78 758.543C1104.84 763.76 1100.95 766.983 1096.1 768.212C1089.19 769.966 1082.97 766.592 1077.44 758.09L1071.65 760.899C1068.57 761.201 1066.83 760.608 1066.46 759.122C1066.08 757.636 1066.68 756.348 1068.26 755.26L1070.59 755.082C1073.7 753.26 1075.2 752.123 1075.09 751.671C1072.3 740.685 1073.89 729.45 1079.85 717.966C1083.23 713.669 1085.66 711.333 1087.15 710.956ZM1153.03 695.069L1153.42 694.971C1161.6 694.409 1166.47 697.198 1168.02 703.337L1168.47 705.081C1170.19 711.866 1167.57 719.717 1160.62 728.634L1160.71 729.022C1177.92 738.001 1189.2 741.811 1194.56 740.45C1195.71 740.915 1196.42 741.665 1196.68 742.699C1197.06 744.185 1196.2 745.4 1194.1 746.345C1188.73 747.706 1177.08 743.785 1159.13 734.582L1154.4 733.41L1154.11 733.483C1157.75 740.262 1160.08 745.622 1161.08 749.564C1161.5 751.244 1160.77 752.702 1158.88 753.937C1155.91 754.691 1152.19 747.897 1147.73 733.554C1143.96 727.358 1141.56 722.257 1140.55 718.25L1140.32 717.378C1138.83 711.498 1139.38 708.229 1141.96 707.574L1144.05 708.076L1144.63 707.928C1146.03 700.421 1148.83 696.135 1153.03 695.069ZM1151.74 722.941L1152.36 726.601C1158.37 725.077 1161.96 718.872 1163.11 707.986L1162.21 704.4C1161.48 701.556 1159.11 700.336 1155.09 700.738L1154.5 700.885C1150.43 701.918 1149.51 709.27 1151.74 722.941Z" fill="#7FB0DB" fill-opacity="0.6"/>
<path d="M633.889 347.992L635.537 347.574C637.638 347.454 638.894 348.201 639.304 349.817C639.418 350.269 639.042 351.362 638.175 353.095L639.404 357.941C640.585 362.594 645.265 376.435 653.445 399.464C655.74 408.511 654.173 413.722 648.745 415.099C644.222 416.247 635.96 411.602 623.958 401.166C621.115 401.887 619.052 401.345 617.768 399.538L616.475 397.287C616.434 394.684 617.221 393.178 618.836 392.768C622.832 393.336 629.557 397.751 639.012 406.014C643.306 408.57 646.067 409.692 647.294 409.381L647.876 409.233C648.731 408.535 648.83 406.893 648.174 404.308L646.625 398.202L634.4 362.615L632.608 356.364C631.329 351.324 631.756 348.533 633.889 347.992ZM696.453 342.026L698.778 341.023L699.748 340.777C701.04 340.449 702.667 340.897 704.627 342.119C707.47 341.397 712.411 343.927 719.448 349.707C726.038 356.977 730.161 363.875 731.816 370.402C734.078 379.319 732.355 386.084 726.647 390.696L720.86 393.505C711.167 395.964 702.344 390.464 694.391 377.007C692.455 373.44 691.028 369.847 690.11 366.228L689.864 365.259C687.093 354.338 689.29 346.594 696.453 342.026ZM697.941 351.552L695.588 351.221C694.191 354.12 694.066 357.831 695.214 362.354L695.878 364.972C698.91 376.926 705.154 384.593 714.608 387.972L717.47 387.865L721.153 386.931C724.513 386.079 726.404 383.364 726.825 378.786L726.324 374.374L725.562 371.369C723.103 361.676 717.054 353.96 707.413 348.221L703.144 348.066L702.95 348.115C701.658 348.443 699.988 349.589 697.941 351.552ZM787.71 328.265C785.349 318.96 785.591 313.946 788.434 313.225C791.277 312.504 794.035 317.41 796.707 327.943L799.061 342.511C802.143 354.66 806.135 363.62 811.038 369.392L811.136 369.779C811.464 371.072 810.797 372.101 809.134 372.866L808.746 372.965C806.323 373.442 803.067 369.419 798.979 360.896L798.591 360.994C797.788 371.927 794.77 378.058 789.535 379.386C784.301 380.713 779.867 377.333 776.234 369.245L774.492 363.6L774.025 361.758L769.873 339.289L768.791 335.024C768.463 333.732 768.952 332.542 770.258 331.454L771.13 331.233C772.94 330.774 774.148 331.74 774.754 334.131L774.902 334.712L779.916 360.986L780.826 364.572C782.137 369.742 784.234 372.855 787.115 373.913L788.86 373.47C791.648 370.631 793.093 363.042 793.196 350.705L792.978 343.745L787.71 328.265ZM867.577 294.903C868.74 294.608 869.802 295.405 870.762 297.293C871.057 298.456 869.431 300.588 865.885 303.689C861.959 309.362 860.129 317.873 860.395 329.223L860.837 330.967C865.754 326.763 869.367 324.058 871.675 322.854C872.45 322.657 873.559 323.098 875.002 324.176L875.469 326.018C875.65 326.729 873.167 328.871 868.021 332.446C864.347 335.855 862.55 337.72 862.632 338.043L862.853 338.916C863.771 342.534 866.893 345.078 872.217 346.548L875.661 346.293C877.793 345.752 880.623 343.624 884.152 339.909L885.315 339.614C886.836 339.916 887.752 340.681 888.063 341.909L888.211 342.491C885.27 347.707 881.376 350.93 876.53 352.16C869.615 353.913 863.395 350.539 857.868 342.037L852.081 344.846C848.994 345.148 847.262 344.556 846.885 343.07C846.508 341.583 847.109 340.296 848.69 339.207L851.018 339.029C854.132 337.208 855.632 336.071 855.517 335.618C852.731 324.633 854.317 313.398 860.276 301.913C863.657 297.617 866.09 295.28 867.577 294.903ZM933.457 279.017L933.845 278.918C942.024 278.357 946.893 281.145 948.45 287.284L948.893 289.029C950.614 295.814 947.997 303.665 941.043 312.582L941.141 312.97C958.344 321.949 969.627 325.758 974.99 324.398C976.14 324.863 976.846 325.612 977.108 326.646C977.485 328.132 976.624 329.348 974.526 330.293C969.162 331.654 957.507 327.732 939.56 318.529L934.826 317.357L934.535 317.431C938.181 324.209 940.503 329.57 941.503 333.511C941.929 335.191 941.199 336.649 939.311 337.885C936.339 338.639 932.621 331.844 928.157 317.501C924.384 311.306 921.99 306.204 920.974 302.198L920.752 301.326C919.261 295.445 919.807 292.177 922.392 291.521L924.48 292.023L925.061 291.876C926.458 284.369 929.257 280.082 933.457 279.017ZM932.171 306.889L932.79 310.549C938.799 309.024 942.384 302.819 943.543 291.933L942.633 288.347C941.912 285.504 939.539 284.283 935.514 284.685L934.932 284.833C930.861 285.865 929.941 293.217 932.171 306.889ZM853.461 447.045L855.109 446.627C857.211 446.506 858.466 447.254 858.876 448.869C858.991 449.322 858.615 450.414 857.747 452.147L858.977 456.994C860.157 461.646 864.837 475.487 873.017 498.516C875.312 507.563 873.746 512.775 868.318 514.152C863.794 515.299 855.532 510.655 843.531 500.219C840.687 500.94 838.624 500.397 837.34 498.591L836.047 496.34C836.006 493.737 836.793 492.23 838.408 491.82C842.404 492.389 849.13 496.804 858.585 505.066C862.878 507.622 865.639 508.744 866.867 508.433L867.448 508.285C868.303 507.587 868.402 505.946 867.747 503.361L866.198 497.254L853.972 461.668L852.18 455.417C850.902 450.376 851.329 447.586 853.461 447.045ZM916.026 441.078L918.351 440.076L919.32 439.83C920.612 439.502 922.239 439.949 924.2 441.171C927.043 440.45 931.983 442.979 939.021 448.76C945.61 456.029 949.733 462.928 951.389 469.454C953.651 478.372 951.928 485.136 946.22 489.748L940.433 492.557C930.74 495.016 921.917 489.517 913.964 476.059C912.027 472.492 910.6 468.9 909.682 465.281L909.436 464.312C906.666 453.391 908.862 445.646 916.026 441.078ZM917.514 450.605L915.16 450.273C913.763 453.172 913.639 456.884 914.786 461.407L915.45 464.024C918.483 475.979 924.726 483.646 934.18 487.025L937.042 486.918L940.725 485.983C944.086 485.131 945.976 482.416 946.397 477.839L945.897 473.426L945.134 470.422C942.676 460.729 936.626 453.013 926.986 447.273L922.716 447.118L922.522 447.168C921.23 447.495 919.561 448.641 917.514 450.605ZM1007.28 427.317C1004.92 418.012 1005.16 412.999 1008.01 412.278C1010.85 411.556 1013.61 416.462 1016.28 426.995L1018.63 441.564C1021.72 453.712 1025.71 462.672 1030.61 468.444L1030.71 468.832C1031.04 470.124 1030.37 471.153 1028.71 471.919L1028.32 472.017C1025.9 472.495 1022.64 468.472 1018.55 459.948L1018.16 460.047C1017.36 470.98 1014.34 477.11 1009.11 478.438C1003.87 479.766 999.44 476.386 995.806 468.297L994.064 462.652L993.597 460.811L989.445 438.342L988.363 434.077C988.035 432.784 988.525 431.594 989.83 430.506L990.703 430.285C992.512 429.826 993.72 430.792 994.327 433.183L994.474 433.765L999.488 460.038L1000.4 463.625C1001.71 468.794 1003.81 471.908 1006.69 472.965L1008.43 472.522C1011.22 469.683 1012.67 462.095 1012.77 449.757L1012.55 442.797L1007.28 427.317ZM1087.15 393.956C1088.31 393.661 1089.37 394.457 1090.33 396.346C1090.63 397.509 1089 399.641 1085.46 402.741C1081.53 408.414 1079.7 416.925 1079.97 428.275L1080.41 430.02C1085.33 425.815 1088.94 423.11 1091.25 421.906C1092.02 421.709 1093.13 422.15 1094.57 423.228L1095.04 425.07C1095.22 425.781 1092.74 427.924 1087.59 431.499C1083.92 434.907 1082.12 436.773 1082.2 437.096L1082.43 437.968C1083.34 441.587 1086.47 444.131 1091.79 445.6L1095.23 445.346C1097.37 444.805 1100.2 442.677 1103.72 438.962L1104.89 438.667C1106.41 438.969 1107.32 439.734 1107.64 440.961L1107.78 441.543C1104.84 446.76 1100.95 449.983 1096.1 451.212C1089.19 452.966 1082.97 449.592 1077.44 441.09L1071.65 443.899C1068.57 444.201 1066.83 443.608 1066.46 442.122C1066.08 440.636 1066.68 439.348 1068.26 438.26L1070.59 438.082C1073.7 436.26 1075.2 435.123 1075.09 434.671C1072.3 423.685 1073.89 412.45 1079.85 400.966C1083.23 396.669 1085.66 394.333 1087.15 393.956ZM1153.03 378.069L1153.42 377.971C1161.6 377.409 1166.47 380.198 1168.02 386.337L1168.47 388.081C1170.19 394.866 1167.57 402.717 1160.62 411.634L1160.71 412.022C1177.92 421.001 1189.2 424.811 1194.56 423.45C1195.71 423.915 1196.42 424.665 1196.68 425.699C1197.06 427.185 1196.2 428.4 1194.1 429.345C1188.73 430.706 1177.08 426.785 1159.13 417.582L1154.4 416.41L1154.11 416.483C1157.75 423.262 1160.08 428.622 1161.08 432.564C1161.5 434.244 1160.77 435.702 1158.88 436.937C1155.91 437.691 1152.19 430.897 1147.73 416.554C1143.96 410.358 1141.56 405.257 1140.55 401.25L1140.32 400.378C1138.83 394.498 1139.38 391.229 1141.96 390.574L1144.05 391.076L1144.63 390.928C1146.03 383.421 1148.83 379.135 1153.03 378.069ZM1151.74 405.941L1152.36 409.601C1158.37 408.077 1161.96 401.872 1163.11 390.986L1162.21 387.4C1161.48 384.556 1159.11 383.336 1155.09 383.738L1154.5 383.885C1150.43 384.918 1149.51 392.27 1151.74 405.941Z" fill="#9D7575" fill-opacity="0.6"/>
<path d="M826.889 7.99212L828.537 7.57412C830.638 7.45369 831.894 8.20123 832.304 9.81673C832.418 10.2691 832.042 11.3618 831.175 13.0949L832.404 17.9414C833.585 22.594 838.265 36.4348 846.445 59.4638C848.74 68.5106 847.173 73.7225 841.745 75.0994C837.222 76.2468 828.96 71.6025 816.958 61.1662C814.115 61.8875 812.052 61.3449 810.768 59.5383L809.475 57.2872C809.434 54.6841 810.221 53.1777 811.836 52.7679C815.832 53.3362 822.557 57.7514 832.012 66.0136C836.306 68.5697 839.067 69.692 840.294 69.3805L840.876 69.233C841.731 68.5348 841.83 66.8933 841.174 64.3085L839.625 58.2019L827.4 22.6153L825.608 16.3641C824.329 11.3237 824.756 8.53306 826.889 7.99212ZM889.453 2.02557L891.778 1.02315L892.748 0.777273C894.04 0.449433 895.667 0.896558 897.627 2.11865C900.47 1.3974 905.411 3.927 912.448 9.70746C919.038 16.977 923.161 23.8751 924.816 30.4017C927.078 39.3193 925.355 46.0839 919.647 50.6956L913.86 53.5048C904.167 55.9636 895.344 50.4642 887.391 37.0065C885.455 33.4398 884.028 29.8471 883.11 26.2284L882.864 25.2591C880.093 14.3383 882.29 6.5938 889.453 2.02557ZM890.941 11.5521L888.588 11.2207C887.191 14.1198 887.066 17.8311 888.214 22.3545L888.878 24.9716C891.91 36.9263 898.154 44.5932 907.608 47.9722L910.47 47.8654L914.153 46.931C917.513 46.0786 919.404 43.3638 919.825 38.7865L919.324 34.374L918.562 31.3692C916.103 21.6762 910.054 13.9601 900.413 8.22098L896.144 8.06592L895.95 8.1151C894.658 8.44294 892.988 9.58862 890.941 11.5521ZM980.71 -11.735C978.349 -21.0403 978.591 -26.0535 981.434 -26.7748C984.277 -27.496 987.035 -22.5901 989.707 -12.0571L992.061 2.5113C995.143 14.6599 999.135 23.62 1004.04 29.3916L1004.14 29.7793C1004.46 31.0717 1003.8 32.1008 1002.13 32.8665L1001.75 32.9648C999.323 33.4421 996.067 29.4191 991.979 20.8959L991.591 20.9943C990.788 31.9274 987.77 38.0578 982.535 39.3855C977.301 40.7133 972.867 37.3331 969.234 29.2449L967.492 23.5997L967.025 21.7581L962.873 -0.710793L961.791 -4.97571C961.463 -6.26812 961.952 -7.45823 963.258 -8.54607L964.13 -8.76736C965.94 -9.22634 967.148 -8.26035 967.754 -5.86941L967.902 -5.28783L972.916 20.9859L973.826 24.5723C975.137 29.7419 977.234 32.8553 980.115 33.9125L981.86 33.47C984.648 30.6308 986.093 23.0424 986.196 10.705L985.978 3.74497L980.71 -11.735ZM1060.58 -45.0968C1061.74 -45.3919 1062.8 -44.5952 1063.76 -42.7067C1064.06 -41.5435 1062.43 -39.4117 1058.88 -36.3112C1054.96 -30.6384 1053.13 -22.1271 1053.39 -10.7773L1053.84 -9.03258C1058.75 -13.2373 1062.37 -15.942 1064.67 -17.1464C1065.45 -17.3431 1066.56 -16.9023 1068 -15.824L1068.47 -13.9823C1068.65 -13.2715 1066.17 -11.1286 1061.02 -7.55363C1057.35 -4.14544 1055.55 -2.27979 1055.63 -1.95669L1055.85 -1.08432C1056.77 2.5344 1059.89 5.07836 1065.22 6.54756L1068.66 6.29315C1070.79 5.75221 1073.62 3.62429 1077.15 -0.0906069L1078.31 -0.385663C1079.84 -0.0836944 1080.75 0.68118 1081.06 1.90896L1081.21 2.49054C1078.27 7.70715 1074.38 10.9301 1069.53 12.1595C1062.62 13.9135 1056.39 10.5394 1050.87 2.03735L1045.08 4.84648C1041.99 5.14817 1040.26 4.55589 1039.88 3.06963C1039.51 1.58337 1040.11 0.295846 1041.69 -0.792937L1044.02 -0.970742C1047.13 -2.79243 1048.63 -3.92944 1048.52 -4.38178C1045.73 -15.3672 1047.32 -26.6021 1053.28 -38.0866C1056.66 -42.3831 1059.09 -44.7198 1060.58 -45.0968ZM1126.46 -60.9832L1126.84 -61.0816C1135.02 -61.6434 1139.89 -58.8548 1141.45 -52.7159L1141.89 -50.9712C1143.61 -44.1861 1141 -36.335 1134.04 -27.418L1134.14 -27.0303C1151.34 -18.051 1162.63 -14.2417 1167.99 -15.6022C1169.14 -15.1373 1169.85 -14.3879 1170.11 -13.354C1170.49 -11.8677 1169.62 -10.652 1167.53 -9.70699C1162.16 -8.34645 1150.51 -12.2677 1132.56 -21.4707L1127.83 -22.6428L1127.54 -22.5691C1131.18 -15.7906 1133.5 -10.4304 1134.5 -6.48863C1134.93 -4.80851 1134.2 -3.35077 1132.31 -2.1154C1129.34 -1.36137 1125.62 -8.15575 1121.16 -22.4986C1117.38 -28.6945 1114.99 -33.7957 1113.97 -37.8021L1113.75 -38.6745C1112.26 -44.5549 1112.81 -47.823 1115.39 -48.4787L1117.48 -47.9765L1118.06 -48.1241C1119.46 -55.6313 1122.26 -59.9177 1126.46 -60.9832ZM1125.17 -33.1113L1125.79 -29.4511C1131.8 -30.9755 1135.38 -37.1807 1136.54 -48.0665L1135.63 -51.6529C1134.91 -54.4962 1132.54 -55.7169 1128.51 -55.3149L1127.93 -55.1674C1123.86 -54.1347 1122.94 -46.7827 1125.17 -33.1113ZM1046.46 107.045L1048.11 106.627C1050.21 106.506 1051.47 107.254 1051.88 108.869C1051.99 109.322 1051.61 110.414 1050.75 112.147L1051.98 116.994C1053.16 121.646 1057.84 135.487 1066.02 158.516C1068.31 167.563 1066.75 172.775 1061.32 174.152C1056.79 175.299 1048.53 170.655 1036.53 160.219C1033.69 160.94 1031.62 160.397 1030.34 158.591L1029.05 156.34C1029.01 153.737 1029.79 152.23 1031.41 151.82C1035.4 152.389 1042.13 156.804 1051.58 165.066C1055.88 167.622 1058.64 168.744 1059.87 168.433L1060.45 168.285C1061.3 167.587 1061.4 165.946 1060.75 163.361L1059.2 157.254L1046.97 121.668L1045.18 115.417C1043.9 110.376 1044.33 107.586 1046.46 107.045ZM1109.03 101.078L1111.35 100.076L1112.32 99.8297C1113.61 99.5019 1115.24 99.949 1117.2 101.171C1120.04 100.45 1124.98 102.979 1132.02 108.76C1138.61 116.029 1142.73 122.928 1144.39 129.454C1146.65 138.372 1144.93 145.136 1139.22 149.748L1133.43 152.557C1123.74 155.016 1114.92 149.517 1106.96 136.059C1105.03 132.492 1103.6 128.9 1102.68 125.281L1102.44 124.312C1099.67 113.391 1101.86 105.646 1109.03 101.078ZM1110.51 110.605L1108.16 110.273C1106.76 113.172 1106.64 116.884 1107.79 121.407L1108.45 124.024C1111.48 135.979 1117.73 143.646 1127.18 147.025L1130.04 146.918L1133.73 145.983C1137.09 145.131 1138.98 142.416 1139.4 137.839L1138.9 133.426L1138.13 130.422C1135.68 120.729 1129.63 113.013 1119.99 107.273L1115.72 107.118L1115.52 107.168C1114.23 107.495 1112.56 108.641 1110.51 110.605ZM1200.28 87.3175C1197.92 78.0122 1198.16 72.9989 1201.01 72.2777C1203.85 71.5564 1206.61 76.4623 1209.28 86.9954L1211.63 101.564C1214.72 113.712 1218.71 122.672 1223.61 128.444L1223.71 128.832C1224.04 130.124 1223.37 131.153 1221.71 131.919L1221.32 132.017C1218.9 132.495 1215.64 128.472 1211.55 119.948L1211.16 120.047C1210.36 130.98 1207.34 137.11 1202.11 138.438C1196.87 139.766 1192.44 136.386 1188.81 128.297L1187.06 122.652L1186.6 120.811L1182.45 98.3417L1181.36 94.0767C1181.04 92.7843 1181.52 91.5942 1182.83 90.5064L1183.7 90.2851C1185.51 89.8261 1186.72 90.7921 1187.33 93.183L1187.47 93.7646L1192.49 120.038L1193.4 123.625C1194.71 128.794 1196.81 131.908 1199.69 132.965L1201.43 132.522C1204.22 129.683 1205.67 122.095 1205.77 109.757L1205.55 102.797L1200.28 87.3175ZM1280.15 53.9556C1281.31 53.6606 1282.37 54.4573 1283.33 56.3457C1283.63 57.5089 1282 59.6408 1278.46 62.7413C1274.53 68.414 1272.7 76.9253 1272.97 88.2751L1273.41 90.0199C1278.33 85.8151 1281.94 83.1105 1284.25 81.906C1285.02 81.7093 1286.13 82.1501 1287.57 83.2285L1288.04 85.0702C1288.22 85.781 1285.74 87.9239 1280.59 91.4988C1276.92 94.907 1275.12 96.7727 1275.2 97.0958L1275.43 97.9681C1276.34 101.587 1279.47 104.131 1284.79 105.6L1288.23 105.346C1290.37 104.805 1293.2 102.677 1296.72 98.9618L1297.89 98.6668C1299.41 98.9688 1300.32 99.7336 1300.64 100.961L1300.78 101.543C1297.84 106.76 1293.95 109.983 1289.1 111.212C1282.19 112.966 1275.97 109.592 1270.44 101.09L1264.65 103.899C1261.57 104.201 1259.83 103.608 1259.46 102.122C1259.08 100.636 1259.68 99.3483 1261.26 98.2595L1263.59 98.0817C1266.7 96.26 1268.2 95.123 1268.09 94.6707C1265.3 83.6853 1266.89 72.4503 1272.85 60.9659C1276.23 56.6694 1278.66 54.3326 1280.15 53.9556ZM1346.03 38.0692L1346.42 37.9709C1354.6 37.4091 1359.47 40.1976 1361.02 46.3365L1361.47 48.0813C1363.19 54.8664 1360.57 62.7174 1353.62 71.6345L1353.71 72.0222C1370.92 81.0014 1382.2 84.8107 1387.56 83.4502C1388.71 83.9151 1389.42 84.6646 1389.68 85.6985C1390.06 87.1848 1389.2 88.4004 1387.1 89.3455C1381.73 90.706 1370.08 86.7848 1352.13 77.5817L1347.4 76.4096L1347.11 76.4834C1350.75 83.2619 1353.08 88.622 1354.08 92.5638C1354.5 94.2439 1353.77 95.7017 1351.88 96.937C1348.91 97.6911 1345.19 90.8967 1340.73 76.5539C1336.96 70.358 1334.56 65.2568 1333.55 61.2503L1333.32 60.378C1331.83 54.4975 1332.38 51.2295 1334.96 50.5738L1337.05 51.0759L1337.63 50.9284C1339.03 43.4211 1341.83 39.1347 1346.03 38.0692ZM1344.74 65.9412L1345.36 69.6014C1351.37 68.0769 1354.96 61.8718 1356.11 50.9859L1355.21 47.3995C1354.48 44.5562 1352.11 43.3356 1348.09 43.7375L1347.5 43.885C1343.43 44.9177 1342.51 52.2698 1344.74 65.9412Z" fill="#DF2A2D" fill-opacity="0.6"/>
</svg>
