<svg width="28" height="28" viewBox="0 0 28 28" fill="none" xmlns="http://www.w3.org/2000/svg">
<path d="M21 12.8333V6.99996C21 6.38112 20.7542 5.78763 20.3166 5.35004C19.879 4.91246 19.2855 4.66663 18.6667 4.66663C18.0479 4.66663 17.4544 4.91246 17.0168 5.35004C16.5792 5.78763 16.3334 6.38112 16.3334 6.99996" stroke="#70422F" stroke-width="2" stroke-linecap="round" stroke-linejoin="round"/>
<path d="M16.3333 11.6667V4.66671C16.3333 4.04787 16.0875 3.45438 15.6499 3.01679C15.2123 2.57921 14.6188 2.33337 14 2.33337C13.3811 2.33337 12.7876 2.57921 12.35 3.01679C11.9125 3.45438 11.6666 4.04787 11.6666 4.66671V7.00004" stroke="#70422F" stroke-width="2" stroke-linecap="round" stroke-linejoin="round"/>
<path d="M11.6667 12.25V6.99996C11.6667 6.38112 11.4208 5.78763 10.9832 5.35004C10.5457 4.91246 9.95217 4.66663 9.33333 4.66663C8.71449 4.66663 8.121 4.91246 7.68342 5.35004C7.24583 5.78763 7 6.38112 7 6.99996V16.3333" stroke="#70422F" stroke-width="2" stroke-linecap="round" stroke-linejoin="round"/>
<path d="M21 9.33333C21 8.71449 21.2459 8.121 21.6835 7.68342C22.121 7.24583 22.7145 7 23.3334 7C23.9522 7 24.5457 7.24583 24.9833 7.68342C25.4209 8.121 25.6667 8.71449 25.6667 9.33333V16.3333C25.6667 18.8087 24.6834 21.1827 22.933 22.933C21.1827 24.6833 18.8087 25.6667 16.3334 25.6667H14C10.7334 25.6667 8.75004 24.6633 7.01171 22.9367L2.81171 18.7367C2.4103 18.2921 2.19522 17.7102 2.21102 17.1114C2.22681 16.5127 2.47226 15.9429 2.89655 15.5201C3.32083 15.0973 3.89146 14.8539 4.49027 14.8402C5.08909 14.8266 5.67023 15.0437 6.11337 15.4467L8.16671 17.5" stroke="#70422F" stroke-width="2" stroke-linecap="round" stroke-linejoin="round"/>
</svg>
