<svg width="32" height="32" viewBox="0 0 32 32" fill="red" xmlns="http://www.w3.org/2000/svg">
<g clip-path="url(#clip0_143_70)">
<path d="M13 26C16.3137 26 19 24.6569 19 23C19 21.3431 16.3137 20 13 20C9.68629 20 7 21.3431 7 23C7 24.6569 9.68629 26 13 26Z" stroke="#70422F" stroke-width="2" stroke-miterlimit="10" stroke-linecap="round" stroke-linejoin="round"/>
<path d="M16 31C24.2843 31 31 27.866 31 24C31 20.134 24.2843 17 16 17C7.71573 17 1 20.134 1 24C1 27.866 7.71573 31 16 31Z" stroke="#70422F" stroke-width="2" stroke-miterlimit="10" stroke-linecap="round" stroke-linejoin="round"/>
<path d="M13 23V1L22 6L13 11" stroke="#70422F" stroke-width="2" stroke-miterlimit="10" stroke-linecap="round" stroke-linejoin="round"/>
</g>
<defs>
<clipPath id="clip0_143_70">
<rect width="32" height="32" fill="white"/>
</clipPath>
</defs>
</svg>
