<svg width="53" height="53" viewBox="0 0 53 53" fill="none" xmlns="http://www.w3.org/2000/svg">
<g clip-path="url(#clip0_315_39)">
<rect x="6" y="4" width="42" height="45" fill="#FFEDD7"/>
<path d="M0 0V53H53V0H0ZM12.0852 44.9918C9.83354 44.9918 8.00824 43.1665 8.00824 40.9148C8.00824 38.6632 9.83354 36.8379 12.0852 36.8379C14.3368 36.8379 16.1621 38.6632 16.1621 40.9148C16.1621 43.1665 14.3368 44.9918 12.0852 44.9918ZM26.5 30.5769C24.2484 30.5769 22.4231 28.7516 22.4231 26.5C22.4231 24.2484 24.2484 22.4231 26.5 22.4231C28.7516 22.4231 30.5769 24.2484 30.5769 26.5C30.5769 28.7516 28.7516 30.5769 26.5 30.5769ZM40.9148 16.1621C38.6632 16.1621 36.8379 14.3368 36.8379 12.0852C36.8379 9.83354 38.6632 8.00824 40.9148 8.00824C43.1665 8.00824 44.9918 9.83354 44.9918 12.0852C44.9918 14.3368 43.1665 16.1621 40.9148 16.1621Z" fill="#D1714A"/>
</g>
<defs>
<clipPath id="clip0_315_39">
<rect width="53" height="53" rx="7" fill="white"/>
</clipPath>
</defs>
</svg>
